<svg xmlns="http://www.w3.org/2000/svg" version="1.1" xmlns:xlink="http://www.w3.org/1999/xlink" xmlns:svgjs="http://svgjs.dev/svgjs" width="1440" height="560" preserveAspectRatio="none" viewBox="0 0 1440 560"><g mask="url(&quot;#SvgjsMask1524&quot;)" fill="none"><rect width="1440" height="560" x="0" y="0" fill="url(&quot;#SvgjsLinearGradient1525&quot;)"></rect><path d="M1440 0L720.71 0L1440 90.5z" fill="rgba(255, 255, 255, .1)"></path><path d="M720.71 0L1440 90.5L1440 131.85L328.23 0z" fill="rgba(255, 255, 255, .075)"></path><path d="M328.23 0L1440 131.85L1440 358.39L323.05 0z" fill="rgba(255, 255, 255, .05)"></path><path d="M323.04999999999995 0L1440 358.39L1440 448.94L321.04999999999995 0z" fill="rgba(255, 255, 255, .025)"></path><path d="M0 560L278.71 560L0 296.86z" fill="rgba(0, 0, 0, .1)"></path><path d="M0 296.86L278.71 560L419.58 560L0 187.31z" fill="rgba(0, 0, 0, .075)"></path><path d="M0 187.31L419.58 560L1019.6800000000001 560L0 147.09z" fill="rgba(0, 0, 0, .05)"></path><path d="M0 147.09000000000003L1019.6800000000001 560L1035.02 560L0 103.14000000000003z" fill="rgba(0, 0, 0, .025)"></path></g><defs><mask id="SvgjsMask1524"><rect width="1440" height="560" fill="#ffffff"></rect></mask><linearGradient x1="15.28%" y1="139.29%" x2="84.72%" y2="-39.29%" gradientUnits="userSpaceOnUse" id="SvgjsLinearGradient1525"><stop stop-color="rgba(54, 22, 22, 0.99)" offset="0"></stop><stop stop-color="rgba(144, 5, 5, 1)" offset="1"></stop></linearGradient></defs></svg>